<svg xmlns="http://www.w3.org/2000/svg" viewBox="0 0 100 100">
  <defs>
    <linearGradient id="grad" x1="0%" y1="0%" x2="100%" y2="100%">
      <stop offset="0%" style="stop-color:#6366f1;stop-opacity:1" />
      <stop offset="100%" style="stop-color:#8b5cf6;stop-opacity:1" />
    </linearGradient>
  </defs>
  <rect width="100" height="100" rx="20" fill="url(#grad)"/>
  <g transform="translate(21, 12.5) scale(1)">
    <path d="M 58.496 40.088 L 58.496 75.098 L 45.801 75.098 L 45.801 40.088 Q 45.801 37.598 44.531 36.304 Q 43.262 35.01 40.723 35.01 L 17.822 35.01 L 17.822 22.314 L 40.723 22.314 Q 42.529 22.314 44.531 22.729 Q 46.533 23.145 48.511 24.023 Q 50.488 24.902 52.295 26.294 Q 54.102 27.686 55.469 29.663 Q 56.836 31.641 57.666 34.229 Q 58.496 36.816 58.496 40.088 Z M 12.695 0 L 12.695 75.098 L 0 75.098 L 0 0 L 12.695 0 Z" fill="white"/>
  </g>
</svg>
